<mxfile host="" modified="2020-06-06T22:44:28.469Z" agent="5.0 (Macintosh; Intel Mac OS X 10_15_5) AppleWebKit/537.36 (KHTML, like Gecko) Code/1.45.1 Chrome/78.0.3904.130 Electron/7.2.4 Safari/537.36" etag="Q-OFoyQcXubpIGynaXgt" version="13.1.3">
    <diagram id="XNqPsgycw2dEt8FFkr3B" name="Страница 1">
        <mxGraphModel dx="1050" dy="740" grid="1" gridSize="10" guides="1" tooltips="1" connect="1" arrows="1" fold="1" page="1" pageScale="1" pageWidth="1169" pageHeight="827" math="0" shadow="0">
            <root>
                <mxCell id="0"/>
                <mxCell id="1" parent="0"/>
                <mxCell id="2" value="ARIS Elements Set" style="swimlane;rounded=0;strokeColor=#000000;fillColor=#ffffff;shadow=0;startSize=23;fontColor=#000000;" parent="1" vertex="1">
                    <mxGeometry x="19" y="20" width="1131" height="750" as="geometry"/>
                </mxCell>
                <mxCell id="3" value="" style="group;dropTarget=1;snapToPoint=1;container=0;backgroundOutline=0;resizeWidth=0;resizeHeight=0;movableLabel=0;movable=1;perimeter=hexagonPerimeter2;fillColor=none;autosize=1;strokeColor=none;fontColor=#000000;" parent="2" vertex="1" connectable="0">
                    <mxGeometry x="340" y="60" width="200" height="61" as="geometry">
                        <mxPoint x="130" y="70" as="offset"/>
                    </mxGeometry>
                </mxCell>
                <mxCell id="4" value="" style="rounded=0;whiteSpace=wrap;html=1;fillColor=none;fontColor=#000000;strokeColor=none;allowArrows=0;" parent="3" vertex="1">
                    <mxGeometry width="200" height="61" as="geometry"/>
                </mxCell>
                <mxCell id="5" value="" style="verticalLabelPosition=middle;verticalAlign=middle;html=1;strokeWidth=1;shape=mxgraph.arrows2.arrow;dy=0;dx=28.34;notch=0;rounded=0;glass=0;flipH=1;fillColor=#f8cecc;strokeColor=#b85450;;image=img/lib/clip_art/people/Suit_Woman_Blue_128x128.png;labelPosition=center;align=center;allowArrows=0;resizable=1;resizeHeight=1;perimeter=none;connectable=0;" parent="3" vertex="1">
                    <mxGeometry width="62.5" height="60" as="geometry"/>
                </mxCell>
                <mxCell id="6" value="Event" style="verticalLabelPosition=middle;verticalAlign=middle;html=1;strokeWidth=1;shape=mxgraph.arrows2.arrow;dy=0;dx=25.97;notch=0;rounded=0;glass=0;labelPosition=center;align=left;spacingRight=13;spacing=5;whiteSpace=wrap;fillColor=#FFFFFF;strokeColor=#b85450;cloneable=0;deletable=0;movable=1;dropTarget=0;container=0;allowArrows=0;editable=1;perimeter=none;connectable=0;fontColor=#000000;" parent="3" vertex="1">
                    <mxGeometry x="50" width="150" height="60" as="geometry"/>
                </mxCell>
                <mxCell id="7" value="" style="pointerEvents=1;shadow=0;dashed=0;html=1;labelPosition=center;verticalLabelPosition=bottom;verticalAlign=top;outlineConnect=0;align=left;shape=mxgraph.office.concepts.whats_new;fontFamily=Helvetica;fontSize=12;strokeWidth=1;connectable=0;strokeColor=#b85450;fillColor=#FFFFFF;" parent="3" vertex="1">
                    <mxGeometry x="18.46" y="16.5" width="25.58" height="28" as="geometry"/>
                </mxCell>
                <mxCell id="8" value="" style="pointerEvents=1;shadow=0;dashed=0;html=1;strokeColor=none;fillColor=#505050;labelPosition=center;verticalLabelPosition=bottom;verticalAlign=top;outlineConnect=0;align=center;shape=mxgraph.office.sites.site_collection;allowArrows=0;connectable=0;resizable=0;rotatable=0;" parent="3" vertex="1">
                    <mxGeometry x="199" y="40" width="21" height="20" as="geometry"/>
                </mxCell>
                <mxCell id="9" value="" style="group;dropTarget=1;snapToPoint=1;container=0;backgroundOutline=0;resizeWidth=0;resizeHeight=0;movableLabel=0;movable=1;fillColor=#ffffff;strokeColor=none;" parent="2" vertex="1" connectable="0">
                    <mxGeometry x="21" y="200" width="200" height="60" as="geometry">
                        <mxPoint x="130" y="70" as="offset"/>
                    </mxGeometry>
                </mxCell>
                <mxCell id="10" value="" style="rounded=0;whiteSpace=wrap;html=1;fillColor=none;fontColor=#000000;strokeColor=none;allowArrows=0;" parent="9" vertex="1">
                    <mxGeometry y="-1" width="200" height="61" as="geometry"/>
                </mxCell>
                <mxCell id="11" value="" style="verticalLabelPosition=middle;verticalAlign=middle;html=1;strokeWidth=1;shape=mxgraph.arrows2.arrow;dy=0;dx=0;notch=0;rounded=0;glass=0;flipH=1;fillColor=#dae8fc;strokeColor=#6c8ebf;;image=img/lib/clip_art/people/Suit_Woman_Blue_128x128.png;labelPosition=center;align=center;allowArrows=0;resizable=1;resizeHeight=1;connectable=0;" parent="9" vertex="1">
                    <mxGeometry width="62.18749999999999" height="60" as="geometry"/>
                </mxCell>
                <mxCell id="12" value="System" style="verticalLabelPosition=middle;verticalAlign=middle;html=1;strokeWidth=1;shape=mxgraph.arrows2.arrow;dy=0;dx=0;notch=0;rounded=0;glass=0;labelPosition=center;align=left;spacingRight=13;spacing=5;whiteSpace=wrap;fillColor=#FFFFFF;strokeColor=#6c8ebf;cloneable=0;deletable=0;movable=1;dropTarget=0;container=0;allowArrows=0;editable=1;connectable=0;fontColor=#000000;" parent="9" vertex="1">
                    <mxGeometry x="49.75" width="149.25" height="60" as="geometry"/>
                </mxCell>
                <mxCell id="13" value="" style="shadow=0;dashed=0;html=1;strokeColor=#6c8ebf;labelPosition=center;verticalLabelPosition=bottom;verticalAlign=top;outlineConnect=0;align=left;shape=mxgraph.office.databases.database;fillColor=#FFFFFF;fontFamily=Helvetica;fontSize=12;strokeWidth=1;connectable=0;" parent="9" vertex="1">
                    <mxGeometry x="12.935000000000025" y="12" width="25.452099999999998" height="36" as="geometry"/>
                </mxCell>
                <mxCell id="14" value="Relationship" style="rhombus;whiteSpace=wrap;html=1;rounded=0;strokeColor=#6c8ebf;fillColor=none;resizeWidth=1;spacing=2;spacingLeft=20;spacingRight=20;" parent="2" vertex="1">
                    <mxGeometry x="46" y="310" width="150" height="80" as="geometry"/>
                </mxCell>
                <mxCell id="15" value="(1,1)" style="endArrow=none;html=1;exitX=0.5;exitY=0;exitDx=0;exitDy=0;entryX=0.341;entryY=0.998;entryDx=0;entryDy=0;entryPerimeter=0;labelPosition=center;verticalLabelPosition=top;align=center;verticalAlign=bottom;" parent="2" source="14" target="12" edge="1">
                    <mxGeometry x="0.1574" width="50" height="50" relative="1" as="geometry">
                        <mxPoint x="152" y="270" as="sourcePoint"/>
                        <mxPoint x="152" y="270" as="targetPoint"/>
                        <mxPoint as="offset"/>
                    </mxGeometry>
                </mxCell>
                <mxCell id="16" value="(0,n)" style="endArrow=none;html=1;entryX=0.5;entryY=1;entryDx=0;entryDy=0;labelPosition=center;verticalLabelPosition=bottom;align=center;verticalAlign=top;exitX=0.5;exitY=0;exitDx=0;exitDy=0;" parent="2" source="55" target="14" edge="1">
                    <mxGeometry width="50" height="50" relative="1" as="geometry">
                        <mxPoint x="171" y="421" as="sourcePoint"/>
                        <mxPoint x="182" y="380" as="targetPoint"/>
                    </mxGeometry>
                </mxCell>
                <mxCell id="17" value="" style="endArrow=classic;html=1;endFill=1;exitX=0.5;exitY=1;exitDx=0;exitDy=0;entryX=0.5;entryY=0;entryDx=0;entryDy=0;" parent="2" source="4" target="65" edge="1">
                    <mxGeometry width="50" height="50" relative="1" as="geometry">
                        <mxPoint x="450" y="130" as="sourcePoint"/>
                        <mxPoint x="450" y="190" as="targetPoint"/>
                    </mxGeometry>
                </mxCell>
                <mxCell id="18" value="" style="endArrow=none;html=1;entryX=1;entryY=0.5;entryDx=0;entryDy=0;entryPerimeter=0;exitX=1;exitY=0.5;exitDx=0;exitDy=0;exitPerimeter=0;" parent="2" source="12" target="66" edge="1">
                    <mxGeometry width="50" height="50" relative="1" as="geometry">
                        <mxPoint x="392" y="330" as="sourcePoint"/>
                        <mxPoint x="442" y="280" as="targetPoint"/>
                    </mxGeometry>
                </mxCell>
                <mxCell id="19" value="" style="endArrow=classic;html=1;exitX=0.5;exitY=1;exitDx=0;exitDy=0;entryX=0.5;entryY=0;entryDx=0;entryDy=0;" parent="2" source="97" target="101" edge="1">
                    <mxGeometry width="50" height="50" relative="1" as="geometry">
                        <mxPoint x="440" y="400" as="sourcePoint"/>
                        <mxPoint x="440" y="480" as="targetPoint"/>
                    </mxGeometry>
                </mxCell>
                <mxCell id="20" style="edgeStyle=orthogonalEdgeStyle;rounded=0;orthogonalLoop=1;jettySize=auto;html=1;endArrow=classic;endFill=1;exitX=0.5;exitY=1;exitDx=0;exitDy=0;entryX=0.5;entryY=0;entryDx=0;entryDy=0;" parent="2" source="97" target="106" edge="1">
                    <mxGeometry relative="1" as="geometry">
                        <mxPoint x="731" y="490" as="targetPoint"/>
                        <Array as="points">
                            <mxPoint x="441" y="460"/>
                            <mxPoint x="721" y="460"/>
                        </Array>
                        <mxPoint x="441" y="410" as="sourcePoint"/>
                    </mxGeometry>
                </mxCell>
                <mxCell id="21" value="" style="endArrow=classic;html=1;exitX=0.5;exitY=1;exitDx=0;exitDy=0;entryX=0.5;entryY=0;entryDx=0;entryDy=0;" parent="2" source="65" target="97" edge="1">
                    <mxGeometry width="50" height="50" relative="1" as="geometry">
                        <mxPoint x="420" y="300" as="sourcePoint"/>
                        <mxPoint x="440" y="360" as="targetPoint"/>
                    </mxGeometry>
                </mxCell>
                <mxCell id="22" value="Document&lt;br&gt;" style="shape=document;whiteSpace=wrap;html=1;boundedLbl=1;rounded=1;strokeColor=#666666;fillColor=#f5f5f5;fontColor=#333333;size=0.2375;" parent="2" vertex="1">
                    <mxGeometry x="621" y="354" width="99" height="80" as="geometry"/>
                </mxCell>
                <mxCell id="23" value="" style="group;imageAspect=1;fontColor=#000000;" parent="2" vertex="1" connectable="0">
                    <mxGeometry x="902" y="160" width="200" height="61" as="geometry"/>
                </mxCell>
                <mxCell id="24" value="Department" style="label;whiteSpace=wrap;html=1;fillColor=#fff2cc;strokeColor=#d6b656;arcSize=200;perimeter=ellipsePerimeter;imageWidth=24;imageHeight=24;fontStyle=0;spacingRight=7;spacingLeft=60;fontColor=#000000;" parent="23" vertex="1">
                    <mxGeometry width="199.99999999999994" height="60" as="geometry"/>
                </mxCell>
                <mxCell id="25" value="" style="endArrow=none;html=1;exitX=0.25;exitY=1;exitDx=0;exitDy=0;fillColor=#fff2cc;strokeColor=#d6b656;" parent="23" source="24" edge="1">
                    <mxGeometry width="50" height="50" relative="1" as="geometry">
                        <mxPoint y="60" as="sourcePoint"/>
                        <mxPoint x="55.757142857142846" y="3" as="targetPoint"/>
                    </mxGeometry>
                </mxCell>
                <mxCell id="26" value="" style="pointerEvents=1;shadow=0;dashed=0;html=1;strokeColor=#d6b656;fillColor=#FFFFFF;labelPosition=center;verticalLabelPosition=bottom;verticalAlign=top;outlineConnect=0;align=center;shape=mxgraph.office.users.meeting;fontFamily=Helvetica;fontSize=12;" parent="23" vertex="1">
                    <mxGeometry x="17.443609022556387" y="18" width="29.22857142857142" height="24" as="geometry"/>
                </mxCell>
                <mxCell id="27" value="" style="group;imageAspect=1;" parent="2" vertex="1" connectable="0">
                    <mxGeometry x="902" y="260" width="200" height="61" as="geometry"/>
                </mxCell>
                <mxCell id="28" value="Group" style="label;whiteSpace=wrap;html=1;fillColor=#fff2cc;strokeColor=#d6b656;arcSize=200;perimeter=ellipsePerimeter;imageWidth=24;imageHeight=24;fontStyle=0;spacingRight=7;spacingLeft=60;fontColor=#000000;" parent="27" vertex="1">
                    <mxGeometry width="199.99999999999994" height="60" as="geometry"/>
                </mxCell>
                <mxCell id="29" value="" style="endArrow=none;html=1;exitX=0.25;exitY=1;exitDx=0;exitDy=0;fillColor=#fff2cc;strokeColor=#d6b656;dashed=1;" parent="27" source="28" edge="1">
                    <mxGeometry width="50" height="50" relative="1" as="geometry">
                        <mxPoint y="60" as="sourcePoint"/>
                        <mxPoint x="55.757142857142846" y="3" as="targetPoint"/>
                    </mxGeometry>
                </mxCell>
                <mxCell id="30" value="" style="pointerEvents=1;shadow=0;dashed=0;html=1;strokeColor=#d6b656;labelPosition=center;verticalLabelPosition=bottom;verticalAlign=top;outlineConnect=0;align=center;shape=mxgraph.office.users.users;fillColor=#FFFFFF;fontFamily=Helvetica;fontSize=12;" parent="27" vertex="1">
                    <mxGeometry x="17.443609022556387" y="18" width="29.22857142857142" height="24" as="geometry"/>
                </mxCell>
                <mxCell id="31" style="edgeStyle=orthogonalEdgeStyle;rounded=0;orthogonalLoop=1;jettySize=auto;html=1;exitX=1;exitY=0.5;exitDx=0;exitDy=0;entryX=1;entryY=0.5;entryDx=0;entryDy=0;entryPerimeter=0;endArrow=none;endFill=0;exitPerimeter=0;" parent="2" source="74" target="37" edge="1">
                    <mxGeometry relative="1" as="geometry">
                        <mxPoint x="803" y="410" as="targetPoint"/>
                    </mxGeometry>
                </mxCell>
                <mxCell id="32" style="edgeStyle=orthogonalEdgeStyle;rounded=0;orthogonalLoop=1;jettySize=auto;html=1;exitX=1;exitY=0.5;exitDx=0;exitDy=0;exitPerimeter=0;entryX=1;entryY=0.5;entryDx=0;entryDy=0;entryPerimeter=0;endArrow=classic;endFill=1;" parent="2" source="67" target="73" edge="1">
                    <mxGeometry relative="1" as="geometry"/>
                </mxCell>
                <mxCell id="33" style="edgeStyle=orthogonalEdgeStyle;rounded=0;orthogonalLoop=1;jettySize=auto;html=1;exitX=1;exitY=0.5;exitDx=0;exitDy=0;exitPerimeter=0;entryX=0;entryY=0.5;entryDx=0;entryDy=0;endArrow=classic;endFill=1;" parent="2" source="67" target="22" edge="1">
                    <mxGeometry relative="1" as="geometry"/>
                </mxCell>
                <mxCell id="34" style="edgeStyle=orthogonalEdgeStyle;rounded=0;orthogonalLoop=1;jettySize=auto;html=1;exitX=1;exitY=0.5;exitDx=0;exitDy=0;exitPerimeter=0;entryX=0;entryY=0.5;entryDx=0;entryDy=0;endArrow=classic;endFill=1;" parent="2" source="74" target="28" edge="1">
                    <mxGeometry relative="1" as="geometry"/>
                </mxCell>
                <mxCell id="35" value="" style="group;dropTarget=1;snapToPoint=1;container=0;backgroundOutline=0;resizeWidth=0;resizeHeight=0;movableLabel=0;movable=1;fillColor=#fff2cc;strokeColor=none;" parent="2" vertex="1" connectable="0">
                    <mxGeometry x="902" y="360" width="199" height="60" as="geometry">
                        <mxPoint x="130" y="70" as="offset"/>
                    </mxGeometry>
                </mxCell>
                <mxCell id="36" value="" style="rounded=0;whiteSpace=wrap;html=1;fillColor=none;fontColor=#000000;strokeColor=none;allowArrows=0;" parent="35" vertex="1">
                    <mxGeometry x="-1" y="-1" width="200" height="61" as="geometry"/>
                </mxCell>
                <mxCell id="37" value="" style="verticalLabelPosition=middle;verticalAlign=middle;html=1;strokeWidth=1;shape=mxgraph.arrows2.arrow;dy=0;dx=0;notch=0;rounded=0;glass=0;flipH=1;fillColor=#fff2cc;strokeColor=#d6b656;;image=img/lib/clip_art/people/Suit_Woman_Blue_128x128.png;labelPosition=center;align=center;allowArrows=0;resizable=1;resizeHeight=1;connectable=0;" parent="35" vertex="1">
                    <mxGeometry width="62.18749999999999" height="60" as="geometry"/>
                </mxCell>
                <mxCell id="38" value="Role" style="verticalLabelPosition=middle;verticalAlign=middle;html=1;strokeWidth=1;shape=mxgraph.arrows2.arrow;dy=0;dx=0;notch=0;rounded=0;glass=0;labelPosition=center;align=left;spacingRight=13;spacing=5;whiteSpace=wrap;fillColor=#FFFFFF;strokeColor=#d6b656;cloneable=0;deletable=0;movable=1;dropTarget=0;container=0;allowArrows=0;editable=1;connectable=0;fontColor=#000000;" parent="35" vertex="1">
                    <mxGeometry x="49.75" width="149.25" height="60" as="geometry"/>
                </mxCell>
                <mxCell id="39" value="" style="pointerEvents=1;shadow=0;dashed=0;html=1;strokeColor=#d6b656;fillColor=#FFFFFF;labelPosition=center;verticalLabelPosition=bottom;verticalAlign=top;outlineConnect=0;align=left;shape=mxgraph.office.users.tenant_admin;fontFamily=Helvetica;fontSize=12;strokeWidth=1;connectable=0;" parent="35" vertex="1">
                    <mxGeometry x="12.94" y="15.5" width="25.45" height="28" as="geometry"/>
                </mxCell>
                <mxCell id="40" value="" style="group;imageAspect=1;" parent="2" vertex="1" connectable="0">
                    <mxGeometry x="902" y="60" width="200" height="61" as="geometry"/>
                </mxCell>
                <mxCell id="41" value="Company" style="label;whiteSpace=wrap;html=1;fillColor=#fff2cc;strokeColor=#d6b656;arcSize=200;perimeter=ellipsePerimeter;imageWidth=24;imageHeight=24;fontStyle=0;spacingRight=7;spacingLeft=60;fontColor=#000000;" parent="40" vertex="1">
                    <mxGeometry width="199.99999999999994" height="60" as="geometry"/>
                </mxCell>
                <mxCell id="42" value="" style="endArrow=none;html=1;exitX=0.25;exitY=1;exitDx=0;exitDy=0;fillColor=#fff2cc;strokeColor=#d6b656;" parent="40" source="41" edge="1">
                    <mxGeometry width="50" height="50" relative="1" as="geometry">
                        <mxPoint y="60" as="sourcePoint"/>
                        <mxPoint x="55.757142857142846" y="3" as="targetPoint"/>
                    </mxGeometry>
                </mxCell>
                <mxCell id="43" value="" style="pointerEvents=1;shadow=0;dashed=0;html=1;strokeColor=#d6b656;fillColor=#FFFFFF;labelPosition=center;verticalLabelPosition=bottom;verticalAlign=top;outlineConnect=0;align=center;shape=mxgraph.office.concepts.home;fontFamily=Helvetica;fontSize=12;" parent="40" vertex="1">
                    <mxGeometry x="17.443609022556387" y="18" width="29.22857142857142" height="24" as="geometry"/>
                </mxCell>
                <mxCell id="44" value="" style="edgeStyle=orthogonalEdgeStyle;rounded=0;orthogonalLoop=1;jettySize=auto;html=1;endArrow=classic;endFill=1;" parent="2" source="41" target="24" edge="1">
                    <mxGeometry relative="1" as="geometry"/>
                </mxCell>
                <mxCell id="45" style="edgeStyle=orthogonalEdgeStyle;rounded=0;orthogonalLoop=1;jettySize=auto;html=1;exitX=0;exitY=0.5;exitDx=0;exitDy=0;endArrow=classic;endFill=1;entryX=0.469;entryY=-0.044;entryDx=0;entryDy=0;entryPerimeter=0;" parent="2" source="24" target="72" edge="1">
                    <mxGeometry relative="1" as="geometry">
                        <mxPoint x="661" y="240" as="targetPoint"/>
                    </mxGeometry>
                </mxCell>
                <mxCell id="46" style="edgeStyle=orthogonalEdgeStyle;rounded=0;orthogonalLoop=1;jettySize=auto;html=1;endArrow=classic;endFill=1;fontColor=#000000;exitX=0.5;exitY=1;exitDx=0;exitDy=0;entryX=0.5;entryY=0;entryDx=0;entryDy=0;" parent="2" source="60" target="10" edge="1">
                    <mxGeometry relative="1" as="geometry">
                        <mxPoint x="153" y="130" as="sourcePoint"/>
                        <mxPoint x="131" y="196" as="targetPoint"/>
                    </mxGeometry>
                </mxCell>
                <mxCell id="47" value="" style="endArrow=classic;html=1;fontColor=#000000;entryX=0.5;entryY=0;entryDx=0;entryDy=0;exitX=0.5;exitY=1;exitDx=0;exitDy=0;" parent="2" target="50" edge="1">
                    <mxGeometry width="50" height="50" relative="1" as="geometry">
                        <mxPoint x="439.9999999999998" y="561" as="sourcePoint"/>
                        <mxPoint x="431.74875" y="628.9200000000001" as="targetPoint"/>
                    </mxGeometry>
                </mxCell>
                <mxCell id="48" value="" style="endArrow=classic;html=1;fontColor=#000000;entryX=0.5;entryY=0;entryDx=0;entryDy=0;" parent="2" edge="1">
                    <mxGeometry width="50" height="50" relative="1" as="geometry">
                        <mxPoint x="720" y="560" as="sourcePoint"/>
                        <mxPoint x="720" y="619" as="targetPoint"/>
                    </mxGeometry>
                </mxCell>
                <mxCell id="49" value="" style="group;dropTarget=1;snapToPoint=1;container=0;backgroundOutline=0;resizeWidth=0;resizeHeight=0;movableLabel=0;movable=1;fillColor=#ffcc99;strokeColor=none;" parent="2" vertex="1" connectable="0">
                    <mxGeometry x="341" y="620" width="199" height="60" as="geometry">
                        <mxPoint x="130" y="70" as="offset"/>
                    </mxGeometry>
                </mxCell>
                <mxCell id="50" value="" style="rounded=0;whiteSpace=wrap;html=1;fillColor=none;fontColor=#000000;strokeColor=none;allowArrows=0;" parent="49" vertex="1">
                    <mxGeometry x="-1" y="-1" width="200" height="61" as="geometry"/>
                </mxCell>
                <mxCell id="51" value="" style="verticalLabelPosition=middle;verticalAlign=middle;html=1;strokeWidth=1;shape=mxgraph.arrows2.arrow;dy=0;dx=0;notch=0;rounded=0;glass=0;flipH=1;fillColor=#ffcc99;strokeColor=#36393d;;image=img/lib/clip_art/people/Suit_Woman_Blue_128x128.png;labelPosition=center;align=center;allowArrows=0;resizable=1;resizeHeight=1;connectable=0;" parent="49" vertex="1">
                    <mxGeometry width="62.18749999999999" height="60" as="geometry"/>
                </mxCell>
                <mxCell id="52" value="Service/Product" style="verticalLabelPosition=middle;verticalAlign=middle;html=1;strokeWidth=1;shape=mxgraph.arrows2.arrow;dy=0;dx=0;notch=0;rounded=0;glass=0;labelPosition=center;align=left;spacingRight=13;spacing=5;whiteSpace=wrap;fillColor=#FFFFFF;strokeColor=#36393d;cloneable=0;deletable=0;movable=1;dropTarget=0;container=0;allowArrows=0;editable=1;connectable=0;fontColor=#000000;" parent="49" vertex="1">
                    <mxGeometry x="49.75" width="149.25" height="60" as="geometry"/>
                </mxCell>
                <mxCell id="53" value="" style="pointerEvents=1;shadow=0;dashed=0;html=1;strokeColor=#d79b00;fillColor=#FFFFFF;labelPosition=center;verticalLabelPosition=bottom;verticalAlign=top;outlineConnect=0;align=left;shape=mxgraph.office.concepts.marketplace_shopping_bag;fontFamily=Helvetica;fontSize=12;strokeWidth=1;connectable=0;" parent="49" vertex="1">
                    <mxGeometry x="12.94" y="15.5" width="25.45" height="28" as="geometry"/>
                </mxCell>
                <mxCell id="54" value="" style="group;dropTarget=1;snapToPoint=1;container=0;backgroundOutline=0;resizeWidth=0;resizeHeight=0;movableLabel=0;movable=1;fillColor=#ffffff;strokeColor=none;" parent="2" vertex="1" connectable="0">
                    <mxGeometry x="21" y="441" width="200" height="60" as="geometry">
                        <mxPoint x="130" y="70" as="offset"/>
                    </mxGeometry>
                </mxCell>
                <mxCell id="55" value="" style="rounded=0;whiteSpace=wrap;html=1;fillColor=none;fontColor=#000000;strokeColor=none;allowArrows=0;" parent="54" vertex="1">
                    <mxGeometry y="-1" width="200" height="61" as="geometry"/>
                </mxCell>
                <mxCell id="56" value="" style="verticalLabelPosition=middle;verticalAlign=middle;html=1;strokeWidth=1;shape=mxgraph.arrows2.arrow;dy=0;dx=0;notch=0;rounded=0;glass=0;flipH=1;fillColor=#dae8fc;strokeColor=#6c8ebf;;image=img/lib/clip_art/people/Suit_Woman_Blue_128x128.png;labelPosition=center;align=center;allowArrows=0;resizable=1;resizeHeight=1;connectable=0;" parent="54" vertex="1">
                    <mxGeometry width="62.18749999999999" height="60" as="geometry"/>
                </mxCell>
                <mxCell id="57" value="System" style="verticalLabelPosition=middle;verticalAlign=middle;html=1;strokeWidth=1;shape=mxgraph.arrows2.arrow;dy=0;dx=0;notch=0;rounded=0;glass=0;labelPosition=center;align=left;spacingRight=13;spacing=5;whiteSpace=wrap;fillColor=#FFFFFF;strokeColor=#6c8ebf;cloneable=0;deletable=0;movable=1;dropTarget=0;container=0;allowArrows=0;editable=1;connectable=0;fontColor=#000000;" parent="54" vertex="1">
                    <mxGeometry x="49.75" width="149.25" height="60" as="geometry"/>
                </mxCell>
                <mxCell id="58" value="" style="shadow=0;dashed=0;html=1;strokeColor=#6c8ebf;labelPosition=center;verticalLabelPosition=bottom;verticalAlign=top;outlineConnect=0;align=left;shape=mxgraph.office.databases.database;fillColor=#FFFFFF;fontFamily=Helvetica;fontSize=12;strokeWidth=1;connectable=0;" parent="54" vertex="1">
                    <mxGeometry x="12.935000000000024" y="12" width="25.452099999999998" height="36" as="geometry"/>
                </mxCell>
                <mxCell id="59" value="" style="group;dropTarget=1;snapToPoint=1;container=0;backgroundOutline=0;resizeWidth=0;resizeHeight=0;movableLabel=0;movable=1;fillColor=#e1d5e7;strokeColor=none;" parent="2" vertex="1" connectable="0">
                    <mxGeometry x="21" y="60" width="200" height="60" as="geometry">
                        <mxPoint x="130" y="70" as="offset"/>
                    </mxGeometry>
                </mxCell>
                <mxCell id="60" value="" style="rounded=0;whiteSpace=wrap;html=1;fillColor=none;fontColor=#000000;strokeColor=none;allowArrows=0;" parent="59" vertex="1">
                    <mxGeometry y="-1" width="200" height="61" as="geometry"/>
                </mxCell>
                <mxCell id="61" value="" style="verticalLabelPosition=middle;verticalAlign=middle;html=1;strokeWidth=1;shape=mxgraph.arrows2.arrow;dy=0;dx=0;notch=0;rounded=0;glass=0;flipH=1;fillColor=#e1d5e7;strokeColor=#9673a6;;image=img/lib/clip_art/people/Suit_Woman_Blue_128x128.png;labelPosition=center;align=center;allowArrows=0;resizable=1;resizeHeight=1;connectable=0;" parent="59" vertex="1">
                    <mxGeometry width="62.18749999999999" height="60" as="geometry"/>
                </mxCell>
                <mxCell id="62" value="Server" style="verticalLabelPosition=middle;verticalAlign=middle;html=1;strokeWidth=1;shape=mxgraph.arrows2.arrow;dy=0;dx=0;notch=0;rounded=0;glass=0;labelPosition=center;align=left;spacingRight=13;spacing=5;whiteSpace=wrap;fillColor=#FFFFFF;strokeColor=#9673a6;cloneable=0;deletable=0;movable=1;dropTarget=0;container=0;allowArrows=0;editable=1;connectable=0;fontColor=#000000;" parent="59" vertex="1">
                    <mxGeometry x="49.75" width="149.25" height="60" as="geometry"/>
                </mxCell>
                <mxCell id="63" value="" style="pointerEvents=1;shadow=0;dashed=0;html=1;strokeColor=#9673a6;fillColor=#FFFFFF;labelPosition=center;verticalLabelPosition=bottom;verticalAlign=top;outlineConnect=0;align=left;shape=mxgraph.office.servers.server_generic;fontFamily=Helvetica;fontSize=12;strokeWidth=1;connectable=0;" parent="59" vertex="1">
                    <mxGeometry x="12.935000000000025" y="12" width="25.452099999999998" height="36" as="geometry"/>
                </mxCell>
                <mxCell id="64" value="" style="group;dropTarget=1;snapToPoint=1;container=0;backgroundOutline=0;resizeWidth=0;resizeHeight=0;movableLabel=0;movable=1;fillColor=#ffffff;strokeColor=none;connectable=0;allowArrows=1;" parent="2" vertex="1" connectable="0">
                    <mxGeometry x="341" y="200" width="200" height="60" as="geometry">
                        <mxPoint x="130" y="70" as="offset"/>
                    </mxGeometry>
                </mxCell>
                <mxCell id="65" value="" style="rounded=0;whiteSpace=wrap;html=1;fillColor=none;fontColor=#000000;strokeColor=none;allowArrows=0;" parent="64" vertex="1">
                    <mxGeometry y="-1" width="200" height="61" as="geometry"/>
                </mxCell>
                <mxCell id="66" value="" style="verticalLabelPosition=middle;verticalAlign=middle;html=1;strokeWidth=1;shape=mxgraph.arrows2.arrow;dy=0;dx=0;notch=0;rounded=0;glass=0;flipH=1;fillColor=#d5e8d4;strokeColor=#82b366;;image=img/lib/clip_art/people/Suit_Woman_Blue_128x128.png;labelPosition=center;align=center;allowArrows=0;resizable=1;resizeHeight=1;connectable=0;" parent="64" vertex="1">
                    <mxGeometry width="62.18749999999999" height="60" as="geometry"/>
                </mxCell>
                <mxCell id="67" value="Activity" style="verticalLabelPosition=middle;verticalAlign=middle;html=1;strokeWidth=1;shape=mxgraph.arrows2.arrow;dy=0;dx=0;notch=0;rounded=0;glass=0;labelPosition=center;align=left;spacingRight=13;spacing=5;whiteSpace=wrap;fillColor=#FFFFFF;strokeColor=#82b366;cloneable=0;deletable=0;movable=1;dropTarget=0;container=0;allowArrows=0;editable=1;connectable=0;fontColor=#000000;" parent="64" vertex="1">
                    <mxGeometry x="49.75" width="149.25" height="60" as="geometry"/>
                </mxCell>
                <mxCell id="68" value="" style="group;fillColor=none;strokeColor=none;" parent="64" vertex="1" connectable="0">
                    <mxGeometry x="12.389999999999986" y="20" width="26" height="20" as="geometry"/>
                </mxCell>
                <mxCell id="69" value="" style="triangle;whiteSpace=wrap;html=1;connectable=0;allowArrows=0;strokeColor=#82b366;fillColor=#ffffff;" parent="68" vertex="1">
                    <mxGeometry width="13" height="20" as="geometry"/>
                </mxCell>
                <mxCell id="70" value="" style="triangle;whiteSpace=wrap;html=1;allowArrows=0;connectable=0;strokeColor=#82b366;fillColor=#ffffff;" parent="68" vertex="1">
                    <mxGeometry x="13" width="13" height="20" as="geometry"/>
                </mxCell>
                <mxCell id="71" value="" style="group;dropTarget=1;snapToPoint=1;container=0;backgroundOutline=0;resizeWidth=0;resizeHeight=0;movableLabel=0;movable=1;fillColor=#fff2cc;strokeColor=none;fontColor=#000000;" parent="2" vertex="1" connectable="0">
                    <mxGeometry x="621" y="260" width="200" height="60" as="geometry">
                        <mxPoint x="130" y="70" as="offset"/>
                    </mxGeometry>
                </mxCell>
                <mxCell id="72" value="" style="rounded=0;whiteSpace=wrap;html=1;fillColor=none;fontColor=#000000;strokeColor=none;allowArrows=0;" parent="71" vertex="1">
                    <mxGeometry y="-1" width="200" height="61" as="geometry"/>
                </mxCell>
                <mxCell id="73" value="" style="verticalLabelPosition=middle;verticalAlign=middle;html=1;strokeWidth=1;shape=mxgraph.arrows2.arrow;dy=0;dx=0;notch=0;rounded=0;glass=0;flipH=1;fillColor=#fff2cc;strokeColor=#d6b656;;image=img/lib/clip_art/people/Suit_Woman_Blue_128x128.png;labelPosition=center;align=center;allowArrows=0;resizable=1;resizeHeight=1;connectable=0;" parent="71" vertex="1">
                    <mxGeometry width="62.18749999999999" height="60" as="geometry"/>
                </mxCell>
                <mxCell id="74" value="Stuff" style="verticalLabelPosition=middle;verticalAlign=middle;html=1;strokeWidth=1;shape=mxgraph.arrows2.arrow;dy=0;dx=0;notch=0;rounded=0;glass=0;labelPosition=center;align=left;spacingRight=13;spacing=5;whiteSpace=wrap;fillColor=#fff2cc;strokeColor=#d6b656;cloneable=0;deletable=0;movable=1;dropTarget=0;container=0;allowArrows=0;editable=1;connectable=0;fontColor=#000000;" parent="71" vertex="1">
                    <mxGeometry x="49.75" width="149.25" height="60" as="geometry"/>
                </mxCell>
                <mxCell id="75" value="" style="pointerEvents=1;shadow=0;dashed=0;html=1;strokeColor=#d6b656;fillColor=#FFFFFF;labelPosition=center;verticalLabelPosition=bottom;verticalAlign=top;outlineConnect=0;align=left;shape=mxgraph.office.users.user;fontFamily=Helvetica;fontSize=12;strokeWidth=1;connectable=0;" parent="71" vertex="1">
                    <mxGeometry x="12.94" y="15.5" width="25.45" height="28" as="geometry"/>
                </mxCell>
                <mxCell id="76" value="Document&lt;br&gt;" style="shape=document;whiteSpace=wrap;html=1;boundedLbl=1;rounded=1;strokeColor=#666666;fillColor=#f5f5f5;fontColor=#333333;size=0.2375;" parent="2" vertex="1">
                    <mxGeometry x="722" y="354" width="99" height="80" as="geometry"/>
                </mxCell>
                <mxCell id="77" value="" style="group;dropTarget=1;snapToPoint=1;container=0;backgroundOutline=0;resizeWidth=0;resizeHeight=0;movableLabel=0;movable=1;fillColor=#ffffff;strokeColor=none;" parent="2" vertex="1" connectable="0">
                    <mxGeometry x="61" y="540" width="200" height="60" as="geometry">
                        <mxPoint x="130" y="70" as="offset"/>
                    </mxGeometry>
                </mxCell>
                <mxCell id="78" value="" style="rounded=0;whiteSpace=wrap;html=1;fillColor=none;fontColor=#000000;strokeColor=none;allowArrows=0;" parent="77" vertex="1">
                    <mxGeometry y="-1" width="200" height="61" as="geometry"/>
                </mxCell>
                <mxCell id="79" value="" style="verticalLabelPosition=middle;verticalAlign=middle;html=1;strokeWidth=1;shape=mxgraph.arrows2.arrow;dy=0;dx=0;notch=0;rounded=0;glass=0;flipH=1;fillColor=#dae8fc;strokeColor=#6c8ebf;;image=img/lib/clip_art/people/Suit_Woman_Blue_128x128.png;labelPosition=center;align=center;allowArrows=0;resizable=1;resizeHeight=1;connectable=0;" parent="77" vertex="1">
                    <mxGeometry width="62.18749999999999" height="60" as="geometry"/>
                </mxCell>
                <mxCell id="80" value="Attribute" style="verticalLabelPosition=middle;verticalAlign=middle;html=1;strokeWidth=1;shape=mxgraph.arrows2.arrow;dy=0;dx=0;notch=0;rounded=0;glass=0;labelPosition=center;align=left;spacingRight=13;spacing=5;whiteSpace=wrap;fillColor=#FFFFFF;strokeColor=#6c8ebf;cloneable=0;deletable=0;movable=1;dropTarget=0;container=0;allowArrows=0;editable=1;connectable=0;fontColor=#000000;" parent="77" vertex="1">
                    <mxGeometry x="49.75" width="149.25" height="60" as="geometry"/>
                </mxCell>
                <mxCell id="81" value="" style="pointerEvents=1;shadow=0;dashed=0;html=1;strokeColor=#6c8ebf;fillColor=#FFFFFF;labelPosition=center;verticalLabelPosition=bottom;verticalAlign=top;outlineConnect=0;align=left;shape=mxgraph.office.security.key_permissions;fontFamily=Helvetica;fontSize=12;strokeWidth=1;connectable=0;" parent="77" vertex="1">
                    <mxGeometry x="16.939999999999998" y="12" width="17.06" height="36" as="geometry"/>
                </mxCell>
                <mxCell id="82" style="edgeStyle=orthogonalEdgeStyle;rounded=0;orthogonalLoop=1;jettySize=auto;html=1;exitX=0;exitY=1;exitDx=0;exitDy=0;endArrow=none;endFill=0;fontColor=#000000;entryX=0;entryY=0.5;entryDx=0;entryDy=0;" parent="2" source="55" target="78" edge="1">
                    <mxGeometry relative="1" as="geometry">
                        <mxPoint x="61" y="570" as="targetPoint"/>
                        <Array as="points">
                            <mxPoint x="21" y="570"/>
                        </Array>
                    </mxGeometry>
                </mxCell>
                <mxCell id="83" value="" style="group;dropTarget=1;snapToPoint=1;container=0;backgroundOutline=0;resizeWidth=0;resizeHeight=0;movableLabel=0;movable=1;fillColor=#ffffff;strokeColor=none;" parent="2" vertex="1" connectable="0">
                    <mxGeometry x="61" y="620" width="200" height="60" as="geometry">
                        <mxPoint x="130" y="70" as="offset"/>
                    </mxGeometry>
                </mxCell>
                <mxCell id="84" value="" style="rounded=0;whiteSpace=wrap;html=1;fillColor=none;fontColor=#000000;strokeColor=none;allowArrows=0;" parent="83" vertex="1">
                    <mxGeometry y="-1" width="200" height="61" as="geometry"/>
                </mxCell>
                <mxCell id="85" value="" style="verticalLabelPosition=middle;verticalAlign=middle;html=1;strokeWidth=1;shape=mxgraph.arrows2.arrow;dy=0;dx=0;notch=0;rounded=0;glass=0;flipH=1;fillColor=#dae8fc;strokeColor=#6c8ebf;;image=img/lib/clip_art/people/Suit_Woman_Blue_128x128.png;labelPosition=center;align=center;allowArrows=0;resizable=1;resizeHeight=1;connectable=0;" parent="83" vertex="1">
                    <mxGeometry width="62.18749999999999" height="60" as="geometry"/>
                </mxCell>
                <mxCell id="86" value="Attribute" style="verticalLabelPosition=middle;verticalAlign=middle;html=1;strokeWidth=1;shape=mxgraph.arrows2.arrow;dy=0;dx=0;notch=0;rounded=0;glass=0;labelPosition=center;align=left;spacingRight=13;spacing=5;whiteSpace=wrap;fillColor=#FFFFFF;strokeColor=#6c8ebf;cloneable=0;deletable=0;movable=1;dropTarget=0;container=0;allowArrows=0;editable=1;connectable=0;fontColor=#000000;" parent="83" vertex="1">
                    <mxGeometry x="49.75" width="149.25" height="60" as="geometry"/>
                </mxCell>
                <mxCell id="87" value="" style="pointerEvents=1;shadow=0;dashed=0;html=1;strokeColor=#6c8ebf;fillColor=#FFFFFF;labelPosition=center;verticalLabelPosition=bottom;verticalAlign=top;outlineConnect=0;align=left;shape=mxgraph.office.concepts.properties;fontFamily=Helvetica;fontSize=12;strokeWidth=1;connectable=0;" parent="83" vertex="1">
                    <mxGeometry x="12.94" y="16" width="25.45" height="28" as="geometry"/>
                </mxCell>
                <mxCell id="88" style="edgeStyle=orthogonalEdgeStyle;rounded=0;orthogonalLoop=1;jettySize=auto;html=1;exitX=0;exitY=1;exitDx=0;exitDy=0;entryX=0;entryY=0.5;entryDx=0;entryDy=0;endArrow=none;endFill=0;fontColor=#000000;" parent="2" source="55" target="84" edge="1">
                    <mxGeometry relative="1" as="geometry"/>
                </mxCell>
                <mxCell id="89" value="" style="group;dropTarget=1;snapToPoint=1;container=0;backgroundOutline=0;resizeWidth=0;resizeHeight=0;movableLabel=0;movable=1;fillColor=none;strokeColor=none;connectable=0;allowArrows=1;" parent="2" vertex="1" connectable="0">
                    <mxGeometry x="901" y="620" width="200" height="60" as="geometry">
                        <mxPoint x="130" y="70" as="offset"/>
                    </mxGeometry>
                </mxCell>
                <mxCell id="90" value="" style="rounded=0;whiteSpace=wrap;html=1;fillColor=none;fontColor=#000000;strokeColor=none;allowArrows=0;" parent="89" vertex="1">
                    <mxGeometry y="-1" width="200" height="61" as="geometry"/>
                </mxCell>
                <mxCell id="91" value="" style="verticalLabelPosition=middle;verticalAlign=middle;html=1;strokeWidth=1;shape=mxgraph.arrows2.arrow;dy=0;dx=21;notch=15;rounded=0;glass=0;flipH=0;fillColor=#d5e8d4;strokeColor=#82b366;;image=img/lib/clip_art/people/Suit_Woman_Blue_128x128.png;labelPosition=center;align=center;allowArrows=0;resizable=1;resizeHeight=1;connectable=0;" parent="89" vertex="1">
                    <mxGeometry width="180" height="60" as="geometry"/>
                </mxCell>
                <mxCell id="92" value="Process" style="verticalLabelPosition=middle;verticalAlign=middle;html=1;strokeWidth=1;shape=mxgraph.arrows2.arrow;dy=0;dx=23;notch=0;rounded=0;glass=0;labelPosition=center;align=left;spacingRight=13;spacing=5;whiteSpace=wrap;fillColor=#FFFFFF;strokeColor=#82b366;cloneable=0;deletable=0;movable=1;dropTarget=0;container=0;allowArrows=0;editable=1;connectable=0;fontColor=#000000;" parent="89" vertex="1">
                    <mxGeometry x="50" width="149" height="60" as="geometry"/>
                </mxCell>
                <UserObject label="" link="data:page/id,xq8X7UjvcgMWOu6OPtXT" id="93">
                    <mxCell style="pointerEvents=1;shadow=0;dashed=0;html=1;strokeColor=none;fillColor=#505050;labelPosition=center;verticalLabelPosition=bottom;verticalAlign=top;outlineConnect=0;align=center;shape=mxgraph.office.sites.site_collection;allowArrows=0;connectable=0;resizable=0;rotatable=0;" parent="89" vertex="1">
                        <mxGeometry x="201" y="40" width="21" height="20" as="geometry"/>
                    </mxCell>
                </UserObject>
                <mxCell id="94" value="" style="group;fillColor=none;strokeColor=none;" parent="89" vertex="1" connectable="0">
                    <mxGeometry x="19.99000000000001" y="20" width="26" height="20" as="geometry"/>
                </mxCell>
                <mxCell id="95" value="" style="triangle;whiteSpace=wrap;html=1;connectable=0;allowArrows=0;strokeColor=#82b366;fillColor=#ffffff;" parent="94" vertex="1">
                    <mxGeometry width="13" height="20" as="geometry"/>
                </mxCell>
                <mxCell id="96" value="" style="triangle;whiteSpace=wrap;html=1;allowArrows=0;connectable=0;strokeColor=#82b366;fillColor=#ffffff;" parent="94" vertex="1">
                    <mxGeometry x="13" width="13" height="20" as="geometry"/>
                </mxCell>
                <mxCell id="97" value="X" style="ellipse;whiteSpace=wrap;html=1;aspect=fixed;rounded=0;shadow=0;strokeColor=none;fillColor=#666666;fontSize=19;fontColor=#FFFFFF;" parent="2" vertex="1">
                    <mxGeometry x="421" y="360" width="40" height="40" as="geometry"/>
                </mxCell>
                <mxCell id="98" value="V" style="ellipse;whiteSpace=wrap;html=1;aspect=fixed;rounded=0;shadow=0;strokeColor=none;fillColor=#666666;fontSize=19;fontColor=#FFFFFF;" parent="2" vertex="1">
                    <mxGeometry x="281" y="360" width="40" height="40" as="geometry"/>
                </mxCell>
                <mxCell id="99" value="V" style="ellipse;whiteSpace=wrap;html=1;aspect=fixed;rounded=0;shadow=0;strokeColor=none;fillColor=#666666;fontSize=19;flipV=0;rotation=-180;fontColor=#FFFFFF;" parent="2" vertex="1">
                    <mxGeometry x="351" y="360" width="40" height="40" as="geometry"/>
                </mxCell>
                <mxCell id="100" value="" style="group;dropTarget=1;snapToPoint=1;container=0;backgroundOutline=0;resizeWidth=0;resizeHeight=0;movableLabel=0;movable=1;perimeter=hexagonPerimeter2;fillColor=none;autosize=1;strokeColor=none;fontColor=#000000;" parent="2" vertex="1" connectable="0">
                    <mxGeometry x="341" y="500" width="200" height="61" as="geometry">
                        <mxPoint x="130" y="70" as="offset"/>
                    </mxGeometry>
                </mxCell>
                <mxCell id="101" value="" style="rounded=0;whiteSpace=wrap;html=1;fillColor=none;fontColor=#000000;strokeColor=none;allowArrows=0;" parent="100" vertex="1">
                    <mxGeometry width="200" height="61" as="geometry"/>
                </mxCell>
                <mxCell id="102" value="" style="verticalLabelPosition=middle;verticalAlign=middle;html=1;strokeWidth=1;shape=mxgraph.arrows2.arrow;dy=0;dx=28.34;notch=0;rounded=0;glass=0;flipH=1;fillColor=#f8cecc;strokeColor=#b85450;;image=img/lib/clip_art/people/Suit_Woman_Blue_128x128.png;labelPosition=center;align=center;allowArrows=0;resizable=1;resizeHeight=1;perimeter=none;connectable=0;" parent="100" vertex="1">
                    <mxGeometry width="62.5" height="60" as="geometry"/>
                </mxCell>
                <mxCell id="103" value="Event" style="verticalLabelPosition=middle;verticalAlign=middle;html=1;strokeWidth=1;shape=mxgraph.arrows2.arrow;dy=0;dx=25.97;notch=0;rounded=0;glass=0;labelPosition=center;align=left;spacingRight=13;spacing=5;whiteSpace=wrap;fillColor=#FFFFFF;strokeColor=#b85450;cloneable=0;deletable=0;movable=1;dropTarget=0;container=0;allowArrows=0;editable=1;perimeter=none;connectable=0;fontColor=#000000;" parent="100" vertex="1">
                    <mxGeometry x="50" width="150" height="60" as="geometry"/>
                </mxCell>
                <mxCell id="104" value="" style="pointerEvents=1;shadow=0;dashed=0;html=1;labelPosition=center;verticalLabelPosition=bottom;verticalAlign=top;outlineConnect=0;align=left;shape=mxgraph.office.concepts.whats_new;fontFamily=Helvetica;fontSize=12;strokeWidth=1;connectable=0;strokeColor=#b85450;fillColor=#FFFFFF;" parent="100" vertex="1">
                    <mxGeometry x="18.46" y="16.5" width="25.58" height="28" as="geometry"/>
                </mxCell>
                <mxCell id="105" value="" style="group;dropTarget=1;snapToPoint=1;container=0;backgroundOutline=0;resizeWidth=0;resizeHeight=0;movableLabel=0;movable=1;perimeter=hexagonPerimeter2;fillColor=none;noLabel=1;autosize=1;strokeColor=none;" parent="2" vertex="1" connectable="0">
                    <mxGeometry x="621" y="500" width="200" height="61" as="geometry">
                        <mxPoint x="130" y="70" as="offset"/>
                    </mxGeometry>
                </mxCell>
                <mxCell id="106" value="" style="rounded=0;whiteSpace=wrap;html=1;fillColor=none;fontColor=#000000;strokeColor=none;allowArrows=0;" parent="105" vertex="1">
                    <mxGeometry width="200" height="61" as="geometry"/>
                </mxCell>
                <mxCell id="107" value="" style="verticalLabelPosition=middle;verticalAlign=middle;html=1;strokeWidth=1;shape=mxgraph.arrows2.arrow;dy=0;dx=28.34;notch=0;rounded=0;glass=0;flipH=1;fillColor=#f8cecc;strokeColor=#b85450;;image=img/lib/clip_art/people/Suit_Woman_Blue_128x128.png;labelPosition=center;align=center;allowArrows=0;resizable=1;resizeHeight=1;perimeter=none;connectable=0;" parent="105" vertex="1">
                    <mxGeometry width="62.5" height="60" as="geometry"/>
                </mxCell>
                <mxCell id="108" value="Event" style="verticalLabelPosition=middle;verticalAlign=middle;html=1;strokeWidth=1;shape=mxgraph.arrows2.arrow;dy=0;dx=25.97;notch=0;rounded=0;glass=0;labelPosition=center;align=left;spacingRight=13;spacing=5;whiteSpace=wrap;fillColor=#FFFFFF;strokeColor=#b85450;cloneable=0;deletable=0;movable=1;dropTarget=0;container=0;allowArrows=0;editable=1;perimeter=none;connectable=0;fontColor=#000000;" parent="105" vertex="1">
                    <mxGeometry x="50" width="150" height="60" as="geometry"/>
                </mxCell>
                <mxCell id="109" value="" style="pointerEvents=1;shadow=0;dashed=0;html=1;labelPosition=center;verticalLabelPosition=bottom;verticalAlign=top;outlineConnect=0;align=left;shape=mxgraph.office.concepts.whats_new;fontFamily=Helvetica;fontSize=12;strokeWidth=1;connectable=0;strokeColor=#b85450;fillColor=#FFFFFF;" parent="105" vertex="1">
                    <mxGeometry x="18.46" y="16.5" width="25.58" height="28" as="geometry"/>
                </mxCell>
                <mxCell id="110" value="" style="group;dropTarget=1;snapToPoint=1;container=0;backgroundOutline=0;resizeWidth=0;resizeHeight=0;movableLabel=0;movable=1;fillColor=none;strokeColor=none;connectable=0;allowArrows=1;" parent="2" vertex="1" connectable="0">
                    <mxGeometry x="621" y="620" width="200" height="60" as="geometry">
                        <mxPoint x="130" y="70" as="offset"/>
                    </mxGeometry>
                </mxCell>
                <mxCell id="111" value="" style="rounded=0;whiteSpace=wrap;html=1;fillColor=none;fontColor=#000000;strokeColor=none;allowArrows=0;" parent="110" vertex="1">
                    <mxGeometry y="-1" width="200" height="61" as="geometry"/>
                </mxCell>
                <mxCell id="112" value="" style="verticalLabelPosition=middle;verticalAlign=middle;html=1;strokeWidth=1;shape=mxgraph.arrows2.arrow;dy=0;dx=21;notch=0;rounded=0;glass=0;flipH=0;fillColor=#d5e8d4;strokeColor=#82b366;;image=img/lib/clip_art/people/Suit_Woman_Blue_128x128.png;labelPosition=center;align=center;allowArrows=0;resizable=1;resizeHeight=1;connectable=0;" parent="110" vertex="1">
                    <mxGeometry width="180" height="60" as="geometry"/>
                </mxCell>
                <mxCell id="113" value="Process" style="verticalLabelPosition=middle;verticalAlign=middle;html=1;strokeWidth=1;shape=mxgraph.arrows2.arrow;dy=0;dx=23;notch=0;rounded=0;glass=0;labelPosition=center;align=left;spacingRight=13;spacing=5;whiteSpace=wrap;fillColor=#FFFFFF;strokeColor=#82b366;cloneable=0;deletable=0;movable=1;dropTarget=0;container=0;allowArrows=0;editable=1;connectable=0;fontColor=#000000;" parent="110" vertex="1">
                    <mxGeometry x="50" width="149" height="60" as="geometry"/>
                </mxCell>
                <mxCell id="114" value="" style="group;fillColor=none;strokeColor=none;" parent="110" vertex="1" connectable="0">
                    <mxGeometry x="13" y="19.5" width="26" height="20" as="geometry"/>
                </mxCell>
                <mxCell id="115" value="" style="triangle;whiteSpace=wrap;html=1;connectable=0;allowArrows=0;strokeColor=#82b366;fillColor=#FFFFFF;" parent="114" vertex="1">
                    <mxGeometry width="13" height="20" as="geometry"/>
                </mxCell>
                <mxCell id="116" value="" style="triangle;whiteSpace=wrap;html=1;allowArrows=0;connectable=0;strokeColor=#82b366;fillColor=#FFFFFF;" parent="114" vertex="1">
                    <mxGeometry x="13" width="13" height="20" as="geometry"/>
                </mxCell>
                <mxCell id="117" style="edgeStyle=orthogonalEdgeStyle;rounded=0;orthogonalLoop=1;jettySize=auto;html=1;exitX=1;exitY=0.5;exitDx=0;exitDy=0;entryX=0;entryY=0.5;entryDx=0;entryDy=0;startFill=0;endFill=1;endArrow=classic;" parent="2" source="111" target="90" edge="1">
                    <mxGeometry relative="1" as="geometry"/>
                </mxCell>
            </root>
        </mxGraphModel>
    </diagram>
</mxfile>